<?xml version="1.0" encoding="UTF-8" standalone="no"?>
<!-- Created with Inkscape (http://www.inkscape.org/) -->

<svg
   xmlns:dc="http://purl.org/dc/elements/1.1/"
   xmlns:cc="http://creativecommons.org/ns#"
   xmlns:rdf="http://www.w3.org/1999/02/22-rdf-syntax-ns#"
   xmlns:svg="http://www.w3.org/2000/svg"
   xmlns="http://www.w3.org/2000/svg"
   xmlns:sodipodi="http://sodipodi.sourceforge.net/DTD/sodipodi-0.dtd"
   xmlns:inkscape="http://www.inkscape.org/namespaces/inkscape"
   width="192.66045mm"
   height="186.69379mm"
   viewBox="0 0 192.66045 186.69379"
   version="1.1"
   id="svg8"
   inkscape:version="0.92.3 (2405546, 2018-03-11)"
   sodipodi:docname="nauti.svg"
   inkscape:export-filename="D:\Dulipa\Icons\Creation\INSKP\app\nauti.svg.png"
   inkscape:export-xdpi="67.481621"
   inkscape:export-ydpi="67.481621">
  <defs
     id="defs2">
    <pattern
       y="0"
       x="0"
       height="6"
       width="6"
       patternUnits="userSpaceOnUse"
       id="EMFhbasepattern" />
  </defs>
  <sodipodi:namedview
     id="base"
     pagecolor="#ffffff"
     bordercolor="#666666"
     borderopacity="1.0"
     inkscape:pageopacity="0.0"
     inkscape:pageshadow="2"
     inkscape:zoom="0.35"
     inkscape:cx="21.476485"
     inkscape:cy="369.6704"
     inkscape:document-units="mm"
     inkscape:current-layer="layer1"
     showgrid="false"
     inkscape:window-width="1152"
     inkscape:window-height="802"
     inkscape:window-x="-8"
     inkscape:window-y="-8"
     inkscape:window-maximized="1" />
  <metadata
     id="metadata5">
    <rdf:RDF>
      <cc:Work
         rdf:about="">
        <dc:format>image/svg+xml</dc:format>
        <dc:type
           rdf:resource="http://purl.org/dc/dcmitype/StillImage" />
        <dc:title />
      </cc:Work>
    </rdf:RDF>
  </metadata>
  <g
     inkscape:label="Layer 1"
     inkscape:groupmode="layer"
     id="layer1"
     transform="translate(-13.325804,-59.948172)">
    <ellipse
       style="fill:#ff6600;fill-opacity:1;fill-rule:evenodd;stroke:#ffffff;stroke-width:0.26458332;stroke-linecap:round;stroke-linejoin:round;stroke-opacity:0.37569059;paint-order:markers fill stroke"
       id="path1398"
       cx="109.61309"
       cy="153.36905"
       rx="95.739563"
       ry="92.604164" />
    <path
       id="path824"
       d="m 112.47273,144.04862 c 2.72011,0.20864 1.56928,-3.02772 0.73233,-3.75852 -1.8832,-1.56606 -5.44031,0 -6.27727,1.87929 -1.67392,3.34088 0.83696,6.99501 4.18484,7.83024 3.13867,0.93963 7.53274,-1.35722 8.8928,-5.95101 1.88319,-6.1598 -1.04619,-10.75358 -7.00961,-12.42402 -7.53272,-1.98365 -14.542351,2.5057 -16.425499,9.81394 -2.197061,8.8743 4.394069,18.16624 13.077619,20.14993 10.35749,2.4013 22.1797,-2.81892 26.25992,-15.24294 4.39411,-13.05049 -5.0218,-31.84315 -20.8196,-34.97524 -25.736807,-5.01141 -43.8363,12.00638 -47.288777,35.39284 -3.034022,19.8367 9.102017,38.10737 20.924238,45.62445 16.530149,10.44037 41.743819,12.84166 61.726519,4.07173"
       style="fill:none;stroke:#fdf7f2;stroke-width:2.329;stroke-linecap:butt;stroke-linejoin:miter;stroke-miterlimit:4;stroke-dasharray:55.89599926, 2.32899996;stroke-dashoffset:0;stroke-opacity:1"
       inkscape:connector-curvature="0" />
    <path
       style="opacity:1;fill:none;fill-opacity:0.63316585;fill-rule:evenodd;stroke:#ffffff;stroke-width:8.8025198;stroke-linecap:butt;stroke-linejoin:round;stroke-miterlimit:4;stroke-dasharray:211.26047243, 8.80251969;stroke-dashoffset:0;stroke-opacity:1;paint-order:normal"
       d="M 384.19465,926.79791 C 226.67397,916.04891 93.043271,800.71294 60.120388,647.09111 53.859594,617.87754 53.040981,546.98789 58.637141,518.64591 68.163807,470.39772 89.921974,420.12033 118.51131,380.2925 c 21.43068,-29.8551 68.14502,-73.81252 98.59378,-92.77511 95.59579,-59.53425 211.59427,-72.7658 318.48773,-36.32882 120.00691,40.907 209.90309,143.43016 233.7174,266.54574 6.38883,33.02903 6.31523,94.04658 -0.15086,125.07109 -18.1474,87.07217 -63.60657,159.54877 -132.69323,211.556 -71.82057,54.06529 -158.16571,78.85817 -252.27148,72.43651 z M 505.70139,765.2742 c 10.50709,-1.44017 13.25592,-2.9482 13.25592,-7.27234 0,-4.78966 -1.30749,-5.1874 -10.71429,-3.25932 -5.89286,1.20783 -25.5,2.12283 -43.57143,2.03332 -50.12848,-0.24829 -97.34443,-13.82277 -132.70769,-38.15335 -11.09318,-7.63231 -13.33043,-8.29771 -14.82279,-4.40868 -1.97836,5.15554 2.06225,8.84551 23.24477,21.22777 43.25971,25.28743 110.2618,37.37854 165.31551,29.8326 z m 42.06974,-9.85746 c 20.6302,-6.70837 25.17049,-9.76988 20.86869,-14.07168 -2.5532,-2.5532 -13.66291,0.18771 -40.34863,9.95454 -1.9378,0.70923 -2.76451,3.26674 -1.83717,5.68337 2.04971,5.34146 -0.5028,5.529 21.31711,-1.56623 z M 311.75589,707.18586 c 0.93898,-1.51929 -4.06877,-9.85377 -11.12834,-18.521 -36.13465,-44.3636 -49.61839,-105.06063 -34.44672,-155.06189 5.19653,-17.1262 5.2297,-20.79757 0.18791,-20.79757 -12.42411,0 -20.23193,68.60677 -11.86828,104.28571 5.89658,25.15455 20.64897,55.17126 37.56255,76.42858 13.09221,16.45457 16.50559,18.82331 19.69288,13.66617 z m 140.63222,-91.61577 c 17.16217,-3.69178 22.13968,-6.72412 20.03602,-12.20612 -1.43737,-3.7458 -3.06594,-3.79943 -12.55917,-0.41377 -13.57765,4.84231 -36.9438,5.21389 -49.76703,0.7914 -43.48397,-14.99686 -55.86357,-72.79186 -20.39637,-95.22191 4.9696,-3.14286 9.08515,-7.96429 9.14569,-10.71429 0.154,-6.99039 -2.95543,-6.2977 -16.82274,3.74771 -29.2798,21.21018 -30.80729,65.9298 -3.19512,93.54198 20.13894,20.13891 44.10692,26.81037 73.55872,20.475 z m 46.23111,-27.34443 c 35.93494,-40.82423 29.46131,-105.30048 -14.64806,-145.89221 -7.11248,-6.54529 -16.81063,-13.90634 -21.5514,-16.35789 -7.86288,-4.06606 -8.7754,-4.05143 -10.394,0.1666 -2.06443,5.37976 -2.60274,4.71574 8.36012,10.31205 21.57125,11.01169 41.25031,38.32701 48.77617,67.70337 7.75837,30.28382 -0.33223,60.70502 -21.69154,81.56182 -6.12352,5.97946 -10.4682,11.94851 -9.65483,13.2646 3.20771,5.19014 9.73751,1.81331 20.80354,-10.75834 z m -50.55254,-26.59732 c 22.47123,-24.92165 12.38231,-59.72809 -19.91237,-68.69721 -15.87423,-4.4087 -20.62558,-3.77948 -20.62558,2.73141 0,4.53994 1.90832,5.71648 9.28572,5.72497 10.9714,0.0126 26.123,8.55328 30.85288,17.39118 4.73575,8.8488 1.52612,27.60071 -6.11671,35.73611 -11.70083,12.45497 -34.02189,6.4226 -34.02189,-9.19454 0,-6.1658 7.15218,-12.51486 14.09789,-12.51486 1.67474,0 3.04497,3.96429 3.04497,8.80951 0,9.31769 4.43086,10.21689 9.64132,1.9566 2.01028,-3.18697 1.87182,-6.87931 -0.44892,-11.9728 -2.65151,-5.81942 -5.40028,-7.36474 -13.10034,-7.36474 -13.90152,0 -22.9492,8.24703 -22.9492,20.91834 0,25.63703 32.41048,36.26335 50.25223,16.47603 z M 281.21722,494.77098 c 27.93585,-52.65961 85.89749,-79.52191 149.88294,-69.4632 10.94715,1.72092 13.57143,1.33 13.57143,-2.02163 0,-5.85165 -6.772,-7.90561 -32.00514,-9.70724 -40.43423,-2.88699 -77.83849,9.36418 -107.31464,35.14921 -15.56235,13.61357 -37.82308,45.00626 -37.82308,53.33916 0,9.02493 7.01321,5.28672 13.68849,-7.2963 z"
       id="path834"
       inkscape:connector-curvature="0"
       transform="scale(0.26458333)" />
  </g>
</svg>
